<svg width="32" height="32" viewBox="0 0 32 32" fill="none" xmlns="http://www.w3.org/2000/svg">
<g clip-path="url(#clip0_60982_410)">
<path d="M25.0411 9.24993C22.0823 6.93565 19.2667 6.99993 19.2667 6.99993L18.9793 7.34306C22.4721 8.45761 24.0957 10.0648 24.0957 10.0648C21.959 8.84333 19.8631 8.24306 17.9106 8.00761C16.4311 7.83645 15.0133 7.87904 13.7597 8.0502C13.6364 8.0502 13.5339 8.0719 13.4106 8.09279C12.6917 8.15708 10.9449 8.43592 8.74652 9.44279C7.986 9.80681 7.53447 10.064 7.53447 10.064C7.53447 10.064 9.23967 8.37083 12.9383 7.25708L12.7325 6.99993C12.7325 6.99993 9.91774 6.93565 6.95887 9.24993C6.95887 9.24993 4 14.8428 4 21.7431C4 21.7431 5.72601 24.8505 10.2668 24.9999C10.2668 24.9999 11.0273 24.0356 11.6438 23.2216C9.03394 22.4076 8.04764 20.6928 8.04764 20.6928C8.04764 20.6928 8.25338 20.8431 8.62324 21.0568C8.64404 21.0785 8.66408 21.0994 8.70569 21.1211C8.76733 21.1637 8.82897 21.1854 8.89061 21.228C9.40457 21.5277 9.91774 21.764 10.3909 21.9568C11.2331 22.2999 12.2402 22.6423 13.4114 22.8785C14.9525 23.1782 16.7609 23.2859 18.7335 22.9002C19.699 22.729 20.6853 22.4285 21.7132 21.9785C22.4321 21.6997 23.2334 21.2931 24.0764 20.7145C24.0764 20.7145 23.0493 22.4719 20.357 23.2642C20.9734 24.0782 21.7132 24.9999 21.7132 24.9999C26.254 24.8497 28.0008 21.7431 28.0008 21.7431C28.0008 14.8428 25.0419 9.24993 25.0419 9.24993H25.0411ZM12.1577 19.7502C11.0073 19.7502 10.0618 18.679 10.0618 17.3716C10.0618 16.0642 10.9865 14.9931 12.1577 14.9931C13.3289 14.9931 14.2744 16.0642 14.2536 17.3716C14.2536 18.679 13.3289 19.7502 12.1577 19.7502ZM19.6574 19.7502C18.5069 19.7502 17.5615 18.679 17.5615 17.3716C17.5615 16.0642 18.4861 14.9931 19.6574 14.9931C20.8286 14.9931 21.7532 16.0642 21.7532 17.3716C21.7532 18.679 20.8286 19.7502 19.6574 19.7502Z" fill="white"/>
</g>
<defs>
<clipPath id="clip0_60982_410">
<rect width="24" height="18" fill="white" transform="translate(4 7)"/>
</clipPath>
</defs>
</svg>
