<svg xmlns="http://www.w3.org/2000/svg" width="16" height="16" fill="none"><path stroke="#fff" d="M15.5 7.99976C15.5 12.1422 12.1422 15.5 7.99976 15.5C3.85777 15.5 0.5 12.1422 0.5 7.99976C0.5 3.85777 3.85777 0.5 7.99976 0.5C12.1422 0.5 15.5 3.85777 15.5 7.99976Z" clip-rule="evenodd"/><path stroke="#fff" d="M12 7.99976C12 12.1422 10.2093 15.5 8 15.5C5.79073 15.5 4 12.1422 4 7.99976C4 3.85777 5.79073 0.5 8 0.5C10.2093 0.5 12 3.85777 12 7.99976Z" clip-rule="evenodd"/><path stroke="#fff" d="M14.5 4.75H1M14.5 11.25H1M8.25 15.5V.5"/></svg>