<svg xmlns="http://www.w3.org/2000/svg" width="65" height="14" fill="none"><path fill="#fff" fill-rule="evenodd" d="M30.7792 8.57036H33.5836C33.13 7.06384 32.6985 5.63091 32.267 4.19799C32.2174 4.19578 32.1675 4.1937 32.1177 4.19149C31.6796 5.62467 31.2416 7.05799 30.7792 8.57036ZM8.55799 8.58727C8.0837 7.0442 7.64467 5.61596 7.20576 4.18759C7.15804 4.19565 7.11032 4.20358 7.06247 4.21152C6.62484 5.65042 6.1872 7.0892 5.73163 8.58727H8.55799ZM57.9491 5.96187C58.7399 6.05186 59.4645 6.10973 60.1525 5.80283C60.7108 5.5538 60.9534 5.08786 60.9115 4.45235C60.871 3.83804 60.7033 3.40994 60.1117 3.23114C59.4198 3.0219 58.7689 3.04466 57.9491 3.21761V5.96187ZM57.8871 8.86491V13.7652H53.7888C53.7714 13.4385 53.7401 13.1085 53.7381 12.7785C53.7213 9.97026 53.7115 7.16202 53.6947 4.35378C53.6928 4.02075 53.6607 3.68784 53.6392 3.29186C53.2637 3.27067 52.9664 3.23959 52.6691 3.23946C50.5012 3.23868 48.333 3.2418 46.1649 3.24804C44.2916 3.25337 43.5914 3.9093 43.2152 5.83287C42.9803 7.03419 43.1058 8.18297 43.4368 9.32928C43.6823 10.1799 44.2426 10.7469 45.0963 10.8651C46.0895 11.0023 47.0801 10.9388 47.6678 9.90901C47.9543 9.40731 48.1656 8.86062 48.4353 8.28219C49.5662 8.63864 50.7134 9.00041 51.917 9.38C51.3714 11.5244 50.3654 13.1234 48.2459 13.7009C47.7271 13.8422 47.1604 13.8339 46.6154 13.8355C42.9511 13.846 39.2868 13.8412 35.6225 13.8391C35.5016 13.839 35.3807 13.8166 35.1898 13.7976C34.9576 13.0924 34.7195 12.3693 34.4564 11.5709C33.0551 11.5709 31.6557 11.5716 30.2563 11.5704C29.9204 11.5702 29.7837 11.7728 29.7015 12.0771C29.5498 12.639 29.3724 13.1938 29.201 13.7677H25.0252C26.3735 10.0584 27.7021 6.40336 29.0533 2.686C28.7958 2.64803 28.6242 2.6007 28.4525 2.60057C25.2463 2.59758 22.0399 2.6033 18.8337 2.59849C18.3859 2.59771 17.9715 2.68184 17.6959 3.05766C17.3328 3.5526 17.4624 4.07471 18.0694 4.33805C18.6212 4.57719 19.226 4.6863 19.8025 4.86887C20.8702 5.20698 21.9676 5.47643 22.9915 5.9213C24.3662 6.51871 25.1143 7.65422 25.1635 9.20496C25.2157 10.8488 24.6273 12.1759 23.2402 13.0837C22.3446 13.6698 21.3453 13.9692 20.304 13.9801C16.9773 14.0152 13.65 13.9932 10.2663 13.9932C9.98491 13.2069 9.70635 12.4286 9.41595 11.6171H4.8491C4.63188 12.2945 4.40778 12.9935 4.1637 13.7546H0C1.65344 9.21199 3.27863 4.74677 4.9126 0.257225H9.44268C9.55581 0.553719 9.68815 0.889095 9.81223 1.22759C10.9617 4.36327 12.1107 7.49908 13.2577 10.6358C13.5281 11.3757 13.5281 11.3908 14.3035 11.3964C15.8608 11.4077 17.4182 11.4167 18.9754 11.4025C19.3671 11.3989 19.7627 11.3272 20.1484 11.2465C20.7136 11.1281 21.05 10.7506 21.1444 10.172C21.2428 9.56895 21.0757 9.18806 20.4507 8.9034C19.818 8.6151 19.1364 8.43954 18.4776 8.21002C17.562 7.89116 16.6145 7.64161 15.7408 7.22925C14.4732 6.6308 13.6593 5.6248 13.6355 4.11841C13.6111 2.56845 14.3236 1.46596 15.6412 0.727974C16.4612 0.268669 17.3436 0.0184699 18.2585 0.0144386C23.5106 -0.00870874 28.7629 0.0024748 34.0151 0.00429537C34.1342 0.00429537 34.2533 0.031604 34.4374 0.0541011C35.764 3.69616 37.0941 7.34759 38.4323 11.0214H39.8091C39.7068 10.7471 39.6126 10.5307 39.5447 10.3062C39.1112 8.87336 38.8533 7.44616 39.0482 5.90972C39.2137 4.60541 39.5517 3.41944 40.3053 2.37351C41.3028 0.989487 42.6566 0.206769 44.3495 0.198967C49.4794 0.175429 54.6098 0.170878 59.7395 0.206249C60.7038 0.212881 61.6897 0.344613 62.625 0.584279C63.9735 0.929798 64.6648 1.96974 64.8926 3.32815C64.9996 3.96587 65.0368 4.59787 64.9574 5.26849C64.7272 7.21482 63.18 8.62043 61.0496 8.75476C60.0501 8.81783 59.0473 8.82629 57.8871 8.86491Z" clip-rule="evenodd" opacity=".5"/></svg>