<svg width="32" height="32" viewBox="0 0 32 32" fill="none" xmlns="http://www.w3.org/2000/svg">
<g clip-path="url(#clip0_60982_408)">
<path d="M13.7904 13.0787V12.1709C13.4907 12.0955 13.191 12.0955 12.8917 12.0955C9.07118 12.0955 6 15.1975 6 19.0559C6 21.4015 7.1985 23.5198 8.92131 24.7303L8.84659 24.6548C7.72281 23.4443 7.12378 21.7801 7.12378 20.0396C7.12378 16.1811 10.1202 13.1546 13.7904 13.0791V13.0787Z" fill="#25F4EE"/>
<path d="M13.9402 23.2171C15.663 23.2171 17.0114 21.8552 17.0861 20.115V4.98369H19.7829C19.7081 4.68095 19.7081 4.37821 19.7081 4H15.9628V19.1318C15.8881 20.7964 14.5397 22.1583 12.8169 22.1583C12.2926 22.1583 11.7682 22.007 11.3938 21.7801C11.9933 22.6124 12.892 23.2175 13.9407 23.2175L13.9402 23.2171ZM24.9513 10.1281V9.22031C23.9027 9.22031 22.9287 8.91757 22.1047 8.388C22.8536 9.22031 23.8275 9.90126 24.9513 10.1281Z" fill="#25F4EE"/>
<path d="M22.1048 8.38805C21.2807 7.48026 20.8316 6.26973 20.8316 4.90784H19.7829C20.0827 6.4211 20.9814 7.63163 22.1052 8.38805H22.1048ZM12.8913 15.8026C11.1684 15.8026 9.74536 17.2399 9.74536 18.98C9.74536 20.1906 10.4943 21.2497 11.4682 21.7793C11.0937 21.2497 10.8687 20.6442 10.8687 19.9633C10.8687 18.2232 12.2918 16.7858 14.0146 16.7858C14.3143 16.7858 14.6141 16.8613 14.9134 16.9372V13.0788C14.6136 13.0033 14.3139 13.0033 14.0146 13.0033H13.8647V15.8785C13.4903 15.8785 13.1906 15.803 12.8908 15.803L12.8913 15.8026Z" fill="#FE2C55"/>
<path d="M24.9513 10.1285V13.0037C23.0039 13.0037 21.2059 12.3982 19.7828 11.3391V19.0563C19.7828 22.9148 16.7116 26.0168 12.8916 26.0168C11.3933 26.0168 10.045 25.5626 8.92163 24.8062C10.1948 26.1681 11.9928 27.0004 13.9402 27.0004C17.7603 27.0004 20.8315 23.8984 20.8315 20.04V12.3228C22.3297 13.3819 24.1272 13.9874 25.9999 13.9874V10.2044C25.7002 10.2044 25.3257 10.2044 24.9513 10.129V10.1285Z" fill="#FE2C55"/>
<path d="M19.7824 19.0559V11.3387C21.2806 12.3978 23.0782 13.0033 24.9508 13.0033V10.0527C23.8271 9.82584 22.8536 9.22036 22.1042 8.38805C20.9057 7.63163 20.0817 6.3452 19.8571 4.90784H17.0857V20.0396C17.0109 21.7043 15.6626 23.0662 13.9398 23.0662C12.8911 23.0662 11.9924 22.5366 11.3929 21.7797C10.419 21.3256 9.74482 20.2665 9.74482 19.0559C9.74482 17.3158 11.1679 15.8785 12.8907 15.8785C13.1904 15.8785 13.4902 15.9539 13.7895 16.0298V13.0792C10.0441 13.1547 7.0481 16.2571 7.0481 20.0396C7.0481 21.8556 7.72228 23.5198 8.92077 24.8058C10.0446 25.5623 11.3925 26.0923 12.8907 26.0923C16.7108 26.0168 19.782 22.8389 19.782 19.0559H19.7824Z" fill="white"/>
</g>
<defs>
<clipPath id="clip0_60982_408">
<rect width="20" height="23" fill="white" transform="translate(6 4)"/>
</clipPath>
</defs>
</svg>
