<svg xmlns="http://www.w3.org/2000/svg" width="83" height="36"><g fill="#FFF" fill-rule="evenodd"><path d="M47.905 14.724c.138-1.046.242-1.89.31-2.53.07-.639.122-1.15.156-1.535.035-.383.058-.668.07-.854.011-.187.017-.35.017-.489a9.498 9.498 0 0 1 1.523 2.634c.37.966.75 1.89 1.144 2.774h-3.22zm28.809-2.6a4.409 4.409 0 0 0-.693-1.133 3.448 3.448 0 0 0-.9-.768c-.323-.186-.635-.232-.935-.14-2.17.303-4.202.745-6.095 1.327a43.54 43.54 0 0 0-5.61 2.163c-.369.186-.6.46-.69.82-.094.36-.088.75.016 1.169.104.419.282.831.536 1.238.254.408.543.762.866 1.065.323.302.67.523 1.039.663.37.14.704.14 1.004 0 .462-.326.918-.57 1.368-.733.45-.163.905-.314 1.368-.454-.624.861-1.42 1.6-2.389 2.216a8.814 8.814 0 0 1-3.117 1.239c-1.108 0-1.922-.256-2.441-.768-.52-.512-.831-1.175-.934-1.989-.105-.814-.047-1.715.172-2.704.22-.989.525-1.971.917-2.948.393-.977.826-1.879 1.299-2.705.473-.825.905-1.47 1.298-1.936a6.77 6.77 0 0 1 1.455-1.343c.508-.338 1.143-.646 1.904-.925.324-.163.652-.256.987-.28.335-.022.733-.034 1.195-.034.3-.023.59.105.866.384l.883.89a4.4 4.4 0 0 0 1.005.767c.357.198.778.192 1.263-.017.207-.14.34-.355.398-.646.058-.29.058-.599 0-.925a3.879 3.879 0 0 0-.295-.942c-.138-.302-.288-.523-.45-.663-.692-1.163-1.535-2.04-2.527-2.634a6.94 6.94 0 0 0-3.169-.994c-1.12-.07-2.25.11-3.393.54-1.143.43-2.21 1.076-3.203 1.937-.808.744-1.524 1.739-2.147 2.983a23.08 23.08 0 0 0-1.541 3.978 27.566 27.566 0 0 0-.866 4.187 18.736 18.736 0 0 0-.15 2.23 37.349 37.349 0 0 1-1.078-2.823c-.37-1.105-.727-2.222-1.075-3.35a41.86 41.86 0 0 0-1.16-3.297 21.838 21.838 0 0 0-1.488-3.036 12.754 12.754 0 0 0-2.06-2.617C47.801.93 47.344.861 46.78.907c-.566.047-1.021.233-1.368.558a8.22 8.22 0 0 0-.883 3.053 36.477 36.477 0 0 0-.156 3.385c0 1.151-.022 2.291-.068 3.42a10.06 10.06 0 0 1-.625 3.157 70.677 70.677 0 0 1-1.835-.506c-.037-.01-.072-.026-.109-.038.024-.129.052-.27.075-.398.324-1.675.45-3.309.381-4.902a75.432 75.432 0 0 0-.38-4.903c-.14-.604-.422-1.244-.849-1.919-.427-.674-.94-1.174-1.54-1.5-.394-.07-.693-.04-.901.087a1.18 1.18 0 0 0-.468.54 2.096 2.096 0 0 0-.173.786c-.012.29-.017.552-.017.785.323 1.838.403 3.728.242 5.67a24.888 24.888 0 0 1-.832 4.616c-.082.055-.164.103-.242.182-.53.372-.773.843-.727 1.413.034.41.168.812.35 1.21-.1.333-.197.666-.315 1.006a15.65 15.65 0 0 0-.536 1.238c-.197.5-.526.913-.987 1.239 0 .07-.047.11-.139.122a.854.854 0 0 1-.329-.035.814.814 0 0 1-.33-.174c-.091-.082-.137-.157-.137-.227-.14-.163-.22-.384-.243-.663a10.59 10.59 0 0 1-.034-.872c.137-.466.097-.977-.121-1.536a8.675 8.675 0 0 0-.78-1.535c-.092-.163-.26-.343-.502-.54a4.3 4.3 0 0 0-.779-.507 1.833 1.833 0 0 0-.83-.209.762.762 0 0 0-.66.349c-.461.907-.917 1.814-1.367 2.722-.45.907-.907 1.732-1.367 2.477a2.822 2.822 0 0 1-.277-1.117 23.18 23.18 0 0 1-.036-1.326 34.775 34.775 0 0 1-.241-3.995c0-1.268.08-2.6.241-3.995.046-.349-.01-.733-.172-1.151a4.99 4.99 0 0 0-.658-1.187 5.171 5.171 0 0 0-.918-.96c-.335-.267-.658-.435-.97-.505a.888.888 0 0 0-.813.192c-.23.197-.37.575-.415 1.134-.162 1.86-.231 3.71-.208 5.548.007.526.05 1.052.08 1.58a10 10 0 0 0-1.967-1.18c-1.028-.453-2.101-.82-3.22-1.098-1.12-.28-2.142-.57-3.065-.873a13.5 13.5 0 0 1-1.212-.523 3.29 3.29 0 0 1-.934-.733.74.74 0 0 0 .588-.314 16.602 16.602 0 0 1 2.978-1.57 8.53 8.53 0 0 1 3.22-.628c.415-.046.704-.215.865-.506.162-.29.237-.64.226-1.047a4.126 4.126 0 0 0-.277-1.308 5.025 5.025 0 0 0-.676-1.256 3.837 3.837 0 0 0-.935-.907C18.056.5 17.698.407 17.33.453c-1.247 0-2.47.21-3.67.628a19.447 19.447 0 0 0-3.463 1.606c-.6.395-1.074.854-1.42 1.378a4.156 4.156 0 0 0-.658 1.675 5.129 5.129 0 0 0 .07 1.866c.139.652.403 1.291.796 1.92.785 1.232 1.708 2.215 2.77 2.948a27.416 27.416 0 0 0 3.428 2.006c.6.326 1.212.576 1.835.75a237.9 237.9 0 0 0 1.836.506c.184 0 .352.053.502.157.15.105.305.157.467.157-.323.163-.577.32-.762.471-.185.152-.334.32-.45.506-.485.303-.97.588-1.454.855a8.248 8.248 0 0 1-1.696.68 8.783 8.783 0 0 1-1.802.68c-.6.152-1.13.228-1.592.228h-1.87c-.069 0-.185-.018-.346-.053l-.485-.104A2.088 2.088 0 0 1 9 19.208c-.08-.035-.086-.052-.017-.052-.162-.14-.37-.314-.624-.524a3.33 3.33 0 0 0-.779-.488 1.428 1.428 0 0 0-.778-.122c-.255.035-.462.215-.624.54a1.76 1.76 0 0 0-.38.96c-.024.337.016.675.121 1.012.103.337.237.657.397.96.163.302.325.57.486.802a6.341 6.341 0 0 0 2.215 1.762 8.73 8.73 0 0 0 2.736.785c.97.116 1.962.11 2.978-.017a13.966 13.966 0 0 0 2.909-.68c.761-.233 1.621-.6 2.58-1.1.957-.5 1.835-1.099 2.631-1.797.38-.333.718-.687 1.019-1.06.115.419.242.83.383 1.235.531 1.512 1.408 2.884 2.631 4.117a5.3 5.3 0 0 1 .572.297c.22.128.432.226.641.296.208.07.398.093.571.07.173-.023.295-.151.364-.384.46-.767.905-1.53 1.333-2.285.427-.756.802-1.518 1.125-2.286l.59.593c.368.535.858 1.03 1.47 1.483.613.454 1.24.768 1.888.942a3.192 3.192 0 0 0 1.869-.034c.6-.198 1.096-.68 1.49-1.448a9.897 9.897 0 0 0 1.159-2.06c.266-.634.496-1.3.704-1.986.238.02.473.042.717.05.334.012.668.047 1.004.105.333.058.675.192 1.02.401.046.489.006 1.146-.12 1.972l-.416 2.704a47.483 47.483 0 0 0-.363 2.983 12.454 12.454 0 0 0 .035 2.809c.114.86.369 1.605.761 2.233.392.628 1.005 1.035 1.835 1.221.369.163.658.204.866.122a.791.791 0 0 0 .45-.436c.092-.21.145-.453.155-.732.012-.28.019-.524.019-.733a16.89 16.89 0 0 1-.088-2.949c.059-.965.15-1.919.277-2.86.127-.943.26-1.88.398-2.81.14-.93.243-1.884.313-2.86.9 0 1.87.046 2.909.139a35.3 35.3 0 0 0 3.15.14c.14.232.3.47.484.715.186.244.393.47.625.68.23.21.479.378.744.506s.547.192.849.192c.225-.07.385-.192.513-.341a9.414 9.414 0 0 0 1.824 1.946 8.364 8.364 0 0 0 3.29 1.605c1.234.302 2.544.28 3.929-.07.992-.302 1.99-.79 2.995-1.465a10.192 10.192 0 0 0 2.51-2.355c.67-.896 1.103-1.844 1.299-2.844.196-1-.017-1.966-.64-2.896.6-.163 1.263-.314 1.99-.454.728-.14 1.403-.279 2.026-.419.416-.093.698-.296.848-.61.15-.314.208-.669.174-1.064a4.042 4.042 0 0 0-.33-1.24z"/><path d="M82.223 32.168c-.796-.967-1.958-1.79-3.484-2.467-1.527-.677-3.32-1.22-5.377-1.629-2.059-.409-4.336-.71-6.833-.903a107.18 107.18 0 0 0-7.867-.306c-2.747-.011-5.568.059-8.464.209-.597.031-1.188.072-1.782.107-.045.477-.106.95-.133 1.433-.055.965-.028 1.948.083 2.948 0 .2-.006.436-.017.698 2.948-.102 5.88-.165 8.795-.186 2.995-.022 5.899.01 8.712.096 2.813.086 5.506.23 8.078.435a92.62 92.62 0 0 1 7.119.823c.315.043.577.032.785-.032.207-.065.36-.162.46-.29.1-.13.145-.28.137-.452a.782.782 0 0 0-.212-.484M40.954 29.86c-.098-.753-.104-1.575-.048-2.445-.949.068-1.898.134-2.84.213-2.86.236-5.652.515-8.378.838-2.725.323-5.274.661-7.648 1.016-2.374.355-4.527.704-6.458 1.048a98.986 98.986 0 0 0-4.853.968c-1.137.258-2.257.521-3.36.79-1.104.27-2.182.565-3.235.887-.251.064-.574.15-.966.258-.393.108-.777.22-1.154.339a5.903 5.903 0 0 0-.99.403c-.285.15-.436.312-.452.483-.067.302.046.511.338.63.293.118.656.177 1.091.177.436 0 .882-.027 1.342-.08.46-.054.832-.102 1.116-.146a366.033 366.033 0 0 0 6.821-.71c2.224-.215 4.64-.435 7.249-.66a556.64 556.64 0 0 1 8.188-.646c2.851-.204 5.785-.392 8.803-.564 2.113-.12 4.243-.205 6.37-.294-.07-.088-.144-.172-.203-.271-.378-.628-.623-1.374-.733-2.233"/></g></svg>