<svg xmlns="http://www.w3.org/2000/svg" width="28" height="28"><g fill="none" fill-rule="evenodd" stroke="#FFF"><path d="M11.188 4.375c0-1.45 1.259-2.625 2.812-2.625s2.813 1.175 2.813 2.625M21 8.75c1.476 1.22 1.75 2.915 1.75 4.15v9.547c0 1.617-1.525 2.928-3.407 2.928H8.657c-1.882 0-3.407-1.311-3.407-2.928v-9.548c0-1.225.396-2.979 1.75-4.128"/><path d="M9 4.375h10a2 2 0 0 1 2 2v3.25c0 2.9-2.35 5.25-5.25 5.25h-3.5A5.25 5.25 0 0 1 7 9.625v-3.25a2 2 0 0 1 2-2z"/><path stroke-linecap="round" d="M14 12.688v4.375"/></g></svg>