<svg xmlns="http://www.w3.org/2000/svg" width="32" height="32" viewBox="0 0 32 32">
    <path fill="none" fill-rule="evenodd" stroke="#FFF" d="M25.403 13.23L20.89 9.263l-4.161-3.655c-.416-.366-1.04-.366-1.456 0L11.11 9.263 6.596 13.23c-.238.21-.374.51-.374.828v11.507c0 .608.493 1.102 1.102 1.102h4.85c.279 0 .504-.226.504-.505v-4.497c0-1.75 1.28-3.325 3.024-3.477 1.968-.171 3.62 1.375 3.62 3.306v4.668c0 .279.225.505.503.505h4.85c.609 0 1.103-.494 1.103-1.102V14.058c0-.317-.137-.619-.375-.828z"/>
</svg>
