<svg xmlns="http://www.w3.org/2000/svg" xmlns:xlink="http://www.w3.org/1999/xlink" width="100" height="100"><defs><path id="a" d="M0 0L40.644 0 40.644 12.956 0 12.956z"/><path id="c" d="M0 0L40.644 0 40.644 9.523 0 9.523z"/></defs><g fill="none" fill-rule="evenodd"><path fill="#191919" d="M0.115 100.205L100.115 100.205 100.115 0.205 0.115 0.205z"/><g opacity=".05"><mask id="b" fill="#fff"><use xlink:href="#a"/></mask><path fill="#FEFEFE" d="M24.122 1.58c-.08-.62-.15-1.119-.21-1.496-.058-.376-.107-.677-.146-.902l-.09-.499c-.024-.108-.046-.202-.067-.282.491.353.915.778 1.274 1.273.36.496.72.967 1.08 1.412l-1.84.493zm16.061-5.898c-.172-.218-.36-.399-.57-.543-.208-.144-.418-.244-.632-.3-.213-.058-.398-.037-.555.062-1.194.505-2.286 1.07-3.279 1.692-.992.622-1.95 1.321-2.873 2.096-.183.163-.273.354-.27.575.002.22.065.442.19.666.123.223.288.432.495.626.208.194.427.353.658.476.231.124.463.197.695.221.233.023.424-.028.574-.154.214-.257.437-.467.67-.629.231-.162.468-.318.711-.469-.224.588-.566 1.133-1.025 1.633-.46.502-.99.897-1.59 1.186-.634.17-1.138.148-1.514-.065-.375-.213-.654-.545-.838-.995-.185-.449-.29-.974-.316-1.573-.026-.599-.002-1.208.072-1.827.075-.619.184-1.2.328-1.745.144-.545.291-.98.445-1.307.178-.39.386-.72.625-.99.238-.272.554-.545.946-.82.16-.144.334-.248.521-.312.188-.065.414-.132.677-.203.168-.059.353-.03.554.087l.641.374c.226.132.456.227.692.285.234.058.474-.009.72-.203.096-.112.14-.255.127-.43-.01-.176-.059-.352-.142-.529-.083-.178-.187-.342-.312-.494-.126-.152-.245-.255-.359-.31-.574-.56-1.19-.933-1.848-1.12-.658-.188-1.312-.216-1.963-.084-.65.131-1.268.408-1.855.83-.587.42-1.098.953-1.534 1.597-.347.55-.604 1.228-.769 2.035-.165.807-.256 1.644-.27 2.511-.016.867.033 1.71.146 2.527.066.477.154.907.256 1.3-.365-.468-.716-.949-1.048-1.45-.38-.576-.756-1.16-1.127-1.752-.37-.593-.76-1.162-1.169-1.709-.408-.546-.846-1.049-1.315-1.508-.469-.459-.995-.853-1.578-1.182-.226-.053-.498-.023-.814.09-.316.113-.548.29-.696.53-.134.605-.146 1.232-.037 1.88.111.648.254 1.301.43 1.96.177.66.34 1.314.485 1.966.146.653.19 1.287.127 1.902-.38.002-.756 0-1.126-.008-.022 0-.045-.004-.068-.005-.006-.078-.01-.163-.018-.24-.072-1.007-.25-1.96-.533-2.862-.285-.9-.608-1.816-.969-2.746-.172-.325-.432-.647-.779-.968-.348-.32-.718-.528-1.11-.622-.236.02-.402.083-.502.188-.099.105-.16.232-.184.381-.024.15-.016.307.022.475.037.168.074.32.11.452.466 1.002.802 2.07 1.008 3.206.166.92.24 1.843.232 2.767-.039.045-.078.085-.11.142-.247.294-.313.6-.2.92.083.23.221.438.386.638-.006.206-.01.411-.026.623-.042.211-.082.475-.117.791-.035.316-.16.603-.374.86.011.04-.009.07-.06.091-.052.021-.116.031-.193.03-.079 0-.15-.017-.216-.049-.064-.033-.102-.069-.113-.109-.105-.072-.185-.186-.24-.342-.056-.156-.107-.32-.154-.494.008-.287-.094-.573-.304-.859-.21-.286-.438-.539-.68-.759-.078-.079-.2-.157-.37-.233-.169-.076-.344-.132-.523-.17-.18-.037-.349-.035-.507.008-.158.042-.266.142-.323.3-.125.59-.246 1.178-.364 1.766-.118.588-.252 1.13-.4 1.626-.144-.16-.254-.36-.33-.596-.079-.236-.153-.487-.224-.753-.307-.773-.556-1.523-.75-2.248-.195-.725-.353-1.499-.475-2.322-.027-.207-.118-.418-.275-.632-.156-.215-.342-.408-.557-.578-.216-.17-.44-.307-.672-.409-.233-.1-.443-.148-.63-.14-.19.007-.335.085-.437.234-.1.148-.123.386-.063.712.193 1.09.436 2.158.731 3.205.085.3.19.595.288.892-.412-.166-.84-.3-1.304-.373-.657-.103-1.326-.148-2.008-.136-.683.012-1.31.002-1.885-.03-.306-.032-.563-.07-.773-.114-.21-.043-.425-.135-.646-.276.08-.02.151-.069.216-.143.032-.037.056-.079.072-.126.444-.505.932-.956 1.461-1.355.53-.398 1.11-.682 1.743-.852.23-.09.37-.23.417-.422.048-.19.037-.402-.032-.633-.069-.23-.188-.466-.359-.706-.17-.239-.363-.444-.578-.615-.215-.17-.44-.296-.673-.376-.233-.08-.452-.078-.656.005-.712.191-1.379.498-2 .921-.623.423-1.2.906-1.733 1.448C.45.784.25 1.12.133 1.472c-.118.352-.158.705-.119 1.06.038.352.146.704.325 1.056.18.351.43.676.75.976.637.585 1.315 1.005 2.034 1.262.72.256 1.474.464 2.266.623.393.094.781.143 1.164.148.382.004.758.007 1.126.008.105-.028.21-.024.311.013s.198.043.291.018c-.16.143-.28.272-.363.387-.083.114-.142.234-.18.358-.23.247-.464.484-.7.711-.236.228-.525.444-.864.65-.297.264-.606.486-.925.664-.32.18-.612.303-.876.374l-1.068.286c-.039.011-.108.018-.205.023l-.294.014c-.098.005-.172.004-.224-.004-.05-.007-.057-.016-.018-.027-.113-.055-.259-.123-.436-.204-.177-.08-.35-.134-.52-.16-.169-.026-.324-.01-.463.05-.14.058-.23.193-.274.404-.085.208-.109.411-.07.607.038.197.113.383.224.56.111.177.236.34.374.488.14.148.273.277.401.385.473.344.985.567 1.536.67.55.101 1.111.111 1.683.03.572-.083 1.138-.238 1.7-.467.56-.228 1.078-.507 1.556-.834.4-.25.835-.59 1.306-1.024.47-.433.88-.91 1.228-1.43.166-.249.304-.504.42-.762.13.221.265.437.408.646.535.784 1.246 1.435 2.134 1.953.103.015.227.042.372.082s.282.063.412.071c.13.01.241-.007.337-.047.095-.04.145-.132.15-.275.144-.51.281-1.014.41-1.512.128-.497.226-.99.293-1.479l.427.25c.293.248.648.456 1.068.622.42.166.826.25 1.223.25.395.001.75-.1 1.062-.306.313-.205.522-.557.63-1.057.167-.429.283-.88.346-1.354.055-.404.084-.82.098-1.245.14-.025.276-.048.417-.08.193-.045.39-.076.59-.095.2-.017.415.007.644.074.101.272.18.654.233 1.146l.178 1.61c.063.582.146 1.17.25 1.762.101.593.251 1.127.45 1.602.197.474.456.861.777 1.16.32.3.732.44 1.235.418.236.037.408.016.514-.063.106-.078.17-.184.19-.318.02-.134.013-.282-.024-.443-.036-.16-.069-.302-.1-.422-.22-.554-.388-1.112-.503-1.673-.115-.56-.209-1.12-.28-1.679-.072-.558-.14-1.114-.204-1.668-.062-.553-.15-1.114-.259-1.684.514-.138 1.075-.26 1.683-.365.608-.106 1.215-.24 1.821-.403.115.112.244.224.386.335.144.111.297.21.461.294.164.084.332.143.503.175.171.033.342.026.514-.02.118-.074.191-.169.242-.274.41.343.855.622 1.34.834.664.293 1.373.431 2.125.415.752-.016 1.497-.23 2.234-.642.521-.325 1.017-.757 1.487-1.296.47-.54.828-1.117 1.073-1.732.246-.615.348-1.223.306-1.825-.04-.602-.31-1.122-.809-1.559.318-.185.674-.373 1.068-.564.394-.19.758-.374 1.093-.55.223-.116.353-.276.391-.479.038-.202.016-.414-.064-.635-.08-.22-.207-.44-.378-.658z" mask="url(#b)"/><path fill="#FEFEFE" d="M46.403 6.303c-.603-.431-1.393-.724-2.369-.878-.976-.153-2.084-.19-3.322-.108-1.238.081-2.586.258-4.042.529-1.457.272-2.97.615-4.542 1.029-1.57.415-3.17.886-4.803 1.416-.337.109-.668.223-1.002.334.047.28.085.559.144.84.116.56.282 1.118.5 1.674.03.114.062.249.097.401 1.668-.51 3.333-.995 4.996-1.452 1.707-.472 3.371-.898 4.992-1.279 1.62-.382 3.181-.711 4.682-.988 1.501-.277 2.9-.483 4.193-.619.187-.024.335-.07.444-.139.108-.068.181-.147.218-.237.037-.088.04-.181.01-.279-.032-.097-.097-.178-.196-.244M22.471 11.301c-.172-.416-.3-.886-.402-1.391-.532.184-1.064.367-1.59.556-1.598.573-3.15 1.16-4.658 1.762-1.507.602-2.912 1.185-4.214 1.752-1.302.566-2.478 1.096-3.529 1.588-1.05.492-1.925.924-2.624 1.296-.61.322-1.21.644-1.799.967-.589.323-1.16.657-1.713 1.002-.133.076-.304.174-.512.296-.207.122-.41.245-.607.37s-.365.253-.504.382c-.14.13-.2.246-.184.346.008.183.105.285.29.308.185.023.402.001.65-.065.25-.067.5-.151.754-.252.255-.101.46-.185.616-.254.633-.235 1.266-.474 1.897-.716.631-.241 1.262-.486 1.891-.734 1.238-.463 2.584-.959 4.04-1.488 1.455-.528 2.982-1.069 4.58-1.622 1.597-.554 3.244-1.11 4.942-1.671 1.19-.392 2.393-.766 3.595-1.143-.054-.04-.109-.076-.158-.124-.312-.301-.566-.69-.76-1.165"/><g transform="translate(0 90.477)"><mask id="d" fill="#fff"><use xlink:href="#c"/></mask><path fill="#FEFEFE" d="M24.122 11.102c-.08-.62-.15-1.118-.21-1.495-.058-.376-.107-.677-.146-.902l-.09-.5c-.024-.107-.046-.201-.067-.281.491.353.915.778 1.274 1.273.36.496.72.967 1.08 1.412l-1.84.493zm16.061-5.897c-.172-.218-.36-.4-.57-.543-.208-.144-.418-.244-.632-.301-.213-.057-.398-.036-.555.063-1.194.505-2.286 1.069-3.279 1.692-.992.622-1.95 1.32-2.873 2.096-.183.163-.273.354-.27.575.002.22.065.442.19.666.123.223.288.432.495.626.208.194.427.353.658.476.231.124.463.197.695.22.233.024.424-.027.574-.153.214-.257.437-.467.67-.63.231-.161.468-.317.711-.468-.224.588-.566 1.133-1.025 1.633-.46.502-.99.897-1.59 1.186-.634.17-1.138.148-1.514-.065-.375-.213-.654-.545-.838-.995-.185-.45-.29-.974-.316-1.573-.026-.6-.002-1.208.072-1.827.075-.62.184-1.201.328-1.745.144-.545.291-.981.445-1.307.178-.39.386-.72.625-.991.238-.271.554-.544.946-.82.16-.143.334-.247.521-.311.188-.065.414-.132.677-.203.168-.06.353-.03.554.087l.641.374c.226.132.456.227.692.285.234.058.474-.01.72-.203.096-.112.14-.255.127-.43-.01-.176-.059-.352-.142-.53-.083-.177-.187-.341-.312-.493-.126-.152-.245-.255-.359-.31-.574-.56-1.19-.933-1.848-1.12-.658-.188-1.312-.216-1.963-.084-.65.13-1.268.408-1.855.829-.587.42-1.098.954-1.534 1.598-.347.549-.604 1.228-.769 2.035-.165.807-.256 1.644-.27 2.51-.016.868.033 1.71.146 2.528.066.477.154.907.256 1.299-.365-.467-.716-.948-1.048-1.45-.38-.575-.756-1.16-1.127-1.751-.37-.593-.76-1.162-1.169-1.71-.408-.545-.846-1.048-1.315-1.507-.469-.46-.995-.853-1.578-1.182-.226-.053-.498-.023-.814.09-.316.113-.548.289-.696.529-.134.606-.146 1.233-.037 1.88.111.649.254 1.302.43 1.96.177.66.34 1.315.485 1.967.146.653.19 1.287.127 1.902-.38.002-.756 0-1.126-.008l-.068-.005c-.006-.078-.01-.163-.018-.24-.072-1.007-.25-1.961-.533-2.862-.285-.901-.608-1.816-.969-2.746-.172-.325-.432-.647-.779-.968-.348-.32-.718-.528-1.11-.622-.236.02-.402.083-.502.188-.099.105-.16.232-.184.38-.024.15-.016.308.022.476.037.168.074.319.11.452.466 1.002.802 2.07 1.008 3.206.166.92.24 1.843.232 2.767-.039.045-.078.085-.11.142-.247.294-.313.6-.2.919.083.23.221.439.386.639-.006.206-.01.41-.026.623-.042.21-.082.475-.117.79-.035.317-.16.604-.374.86.011.04-.009.07-.06.092-.052.02-.116.03-.193.03-.079 0-.15-.017-.216-.05-.064-.032-.102-.068-.113-.108-.105-.072-.185-.186-.24-.342-.056-.156-.107-.321-.154-.494.008-.287-.094-.573-.304-.86-.21-.285-.438-.538-.68-.758-.078-.08-.2-.157-.37-.233-.169-.076-.344-.132-.523-.17-.18-.037-.349-.035-.507.008-.158.042-.266.142-.323.3-.125.59-.246 1.178-.364 1.766-.118.588-.252 1.13-.4 1.626-.144-.161-.254-.36-.33-.596-.079-.236-.153-.487-.224-.753-.307-.773-.556-1.523-.75-2.248-.195-.725-.353-1.5-.475-2.322-.027-.207-.118-.418-.275-.632-.156-.215-.342-.408-.557-.578-.216-.171-.44-.307-.672-.41-.233-.1-.443-.147-.63-.14-.19.008-.335.086-.437.235-.1.148-.123.386-.063.712.193 1.089.436 2.158.731 3.205.085.3.19.595.288.892-.412-.166-.84-.301-1.304-.373-.657-.103-1.326-.148-2.008-.136-.683.012-1.31.002-1.885-.03-.306-.032-.563-.07-.773-.114-.21-.043-.425-.135-.646-.276.08-.021.151-.07.216-.143.032-.037.056-.08.072-.126.444-.505.932-.956 1.461-1.355.53-.398 1.11-.682 1.743-.852.23-.09.37-.231.417-.422.048-.191.037-.402-.032-.633-.069-.231-.188-.466-.359-.706-.17-.24-.363-.444-.578-.615-.215-.17-.44-.296-.673-.376-.233-.08-.452-.078-.656.005-.712.19-1.379.498-2 .92-.623.424-1.2.907-1.733 1.449-.283.318-.483.654-.6 1.006-.118.352-.158.705-.119 1.059.038.353.146.705.325 1.057.18.35.43.676.75.976.637.585 1.315 1.005 2.034 1.262.72.256 1.474.464 2.266.623.393.094.781.143 1.164.148.382.004.758.007 1.126.008.105-.028.21-.024.311.013s.198.043.291.018c-.16.143-.28.272-.363.387-.083.114-.142.234-.18.358-.23.247-.464.484-.7.71-.236.229-.525.445-.864.65-.297.265-.606.487-.925.665-.32.179-.612.303-.876.374l-1.068.286c-.039.01-.108.018-.205.023l-.294.014c-.098.005-.172.004-.224-.004-.05-.007-.057-.016-.018-.027-.113-.055-.259-.123-.436-.204-.177-.081-.35-.134-.52-.16-.169-.026-.324-.01-.463.049-.14.059-.23.194-.274.405-.085.208-.109.41-.07.607.038.197.113.383.224.56.111.177.236.34.374.488.14.148.273.277.401.385.473.344.985.567 1.536.669.55.102 1.111.112 1.683.03.572-.082 1.138-.237 1.7-.466.56-.228 1.078-.507 1.556-.834.4-.25.835-.591 1.306-1.024.47-.433.88-.91 1.228-1.431.166-.248.304-.503.42-.761.13.22.265.437.408.646.535.784 1.246 1.435 2.134 1.953.103.015.227.042.372.082.145.039.282.063.412.07.13.01.241-.006.337-.046.095-.04.145-.132.15-.275.144-.51.281-1.014.41-1.512.128-.497.226-.991.293-1.48l.427.25c.293.249.648.457 1.068.623.42.166.826.249 1.223.25.395 0 .75-.101 1.062-.306.313-.205.522-.557.63-1.057.167-.43.283-.881.346-1.354.055-.404.084-.82.098-1.245.14-.025.276-.048.417-.081.193-.044.39-.075.59-.094.2-.017.415.007.644.074.101.272.18.654.233 1.146l.178 1.61c.063.582.146 1.169.25 1.762.101.593.251 1.127.45 1.602.197.474.456.86.777 1.16.32.3.732.439 1.235.418.236.037.408.016.514-.063.106-.078.17-.184.19-.318.02-.134.013-.282-.024-.443-.036-.161-.069-.302-.1-.422-.22-.554-.388-1.112-.503-1.673-.115-.561-.209-1.121-.28-1.68-.072-.557-.14-1.113-.204-1.667-.062-.553-.15-1.114-.259-1.684.514-.138 1.075-.26 1.683-.365.608-.106 1.215-.24 1.821-.403.115.112.244.224.386.335.144.11.297.209.461.294.164.084.332.143.503.175.171.033.342.026.514-.02.118-.074.191-.17.242-.274.41.343.855.622 1.34.834.664.293 1.373.43 2.125.415.752-.016 1.497-.23 2.234-.642.521-.325 1.017-.757 1.487-1.296.47-.54.828-1.117 1.073-1.732.246-.615.348-1.223.306-1.825-.04-.602-.31-1.122-.809-1.56.318-.184.674-.372 1.068-.563.394-.191.758-.374 1.093-.55.223-.116.353-.276.391-.48.038-.201.016-.413-.064-.634-.08-.221-.207-.44-.378-.658z" mask="url(#d)"/></g><g fill="#FEFEFE"><path d="M24.122 11.102c-.08-.62-.15-1.118-.21-1.495-.058-.376-.107-.677-.146-.902l-.09-.5c-.024-.107-.046-.201-.067-.281.491.353.915.778 1.274 1.273.36.496.72.967 1.08 1.412l-1.84.493zm16.061-5.897c-.172-.218-.36-.4-.57-.543-.208-.144-.418-.244-.632-.301-.213-.057-.398-.036-.555.063-1.194.505-2.286 1.069-3.279 1.692-.992.622-1.95 1.32-2.873 2.096-.183.163-.273.354-.27.575.002.22.065.442.19.666.123.223.288.432.495.626.208.194.427.353.658.476.231.124.463.197.695.22.233.024.424-.027.574-.153.214-.257.437-.467.67-.63.231-.161.468-.317.711-.468-.224.588-.566 1.133-1.025 1.633-.46.502-.99.897-1.59 1.186-.634.17-1.138.148-1.514-.065-.375-.213-.654-.545-.838-.995-.185-.45-.29-.974-.316-1.573-.026-.6-.002-1.208.072-1.827.075-.62.184-1.201.328-1.745.144-.545.291-.981.445-1.307.178-.39.386-.72.625-.991.238-.271.554-.544.946-.82.16-.143.334-.247.521-.311.188-.065.414-.132.677-.203.168-.06.353-.03.554.087l.641.374c.226.132.456.227.692.285.234.058.474-.01.72-.203.096-.112.14-.255.127-.43-.012-.176-.059-.352-.142-.53-.083-.177-.187-.341-.312-.493-.126-.152-.245-.255-.359-.31-.574-.56-1.19-.933-1.848-1.12-.658-.188-1.312-.216-1.963-.084-.65.13-1.268.408-1.855.829-.587.42-1.098.954-1.534 1.598-.347.549-.604 1.228-.769 2.035-.165.807-.256 1.644-.27 2.51-.016.868.033 1.71.146 2.528.066.477.154.907.256 1.299-.365-.467-.716-.948-1.048-1.45-.38-.575-.756-1.16-1.127-1.751-.37-.593-.76-1.162-1.169-1.71-.408-.545-.846-1.048-1.315-1.507-.469-.46-.995-.853-1.578-1.182-.226-.053-.498-.023-.814.09-.316.113-.548.289-.696.529-.134.606-.146 1.233-.037 1.88.111.649.254 1.302.43 1.96.177.66.34 1.315.485 1.967.146.653.19 1.287.127 1.902-.38.002-.756 0-1.126-.008l-.068-.005c-.006-.078-.01-.163-.018-.24-.072-1.007-.25-1.961-.533-2.862-.285-.901-.608-1.816-.969-2.746-.172-.325-.432-.647-.779-.968-.348-.32-.718-.528-1.11-.622-.236.02-.402.083-.502.188-.099.105-.16.232-.184.38-.024.15-.016.308.022.476.037.168.074.319.11.452.466 1.002.802 2.07 1.008 3.206.166.92.24 1.843.232 2.767-.039.045-.078.085-.11.142-.247.294-.313.6-.2.919.083.23.221.439.386.639-.006.206-.01.41-.026.623-.042.21-.082.475-.117.79-.035.317-.16.604-.374.86.011.04-.009.07-.06.092-.052.02-.116.03-.193.03-.079 0-.15-.017-.216-.05-.064-.032-.102-.068-.113-.108-.105-.072-.185-.186-.24-.342-.056-.156-.107-.321-.154-.494.008-.287-.094-.573-.304-.86-.21-.285-.438-.538-.68-.758-.078-.08-.2-.157-.37-.233-.169-.076-.344-.132-.523-.17-.18-.037-.349-.035-.507.008-.158.042-.266.142-.323.3-.125.59-.246 1.178-.364 1.766-.118.588-.252 1.13-.4 1.626-.144-.161-.254-.36-.33-.596-.079-.236-.153-.487-.224-.753-.307-.773-.556-1.523-.75-2.248-.195-.725-.353-1.5-.475-2.322-.027-.207-.118-.418-.275-.632-.156-.215-.342-.408-.557-.578-.216-.171-.44-.307-.672-.41-.233-.1-.443-.147-.63-.14-.19.008-.335.086-.437.235-.1.148-.123.386-.063.712.193 1.089.436 2.158.731 3.205.085.3.19.595.288.892-.412-.166-.84-.301-1.304-.373-.657-.103-1.326-.148-2.008-.136-.683.012-1.31.002-1.885-.03-.306-.032-.563-.07-.773-.114-.21-.043-.425-.135-.646-.276.08-.021.151-.07.216-.143.032-.037.056-.08.072-.126.444-.505.932-.956 1.461-1.355.53-.398 1.11-.682 1.743-.852.23-.09.37-.231.417-.422.048-.191.037-.402-.032-.633-.069-.231-.188-.466-.359-.706-.17-.24-.362-.444-.578-.615-.215-.17-.44-.296-.673-.376-.233-.08-.452-.078-.656.005-.712.19-1.379.498-2 .92-.623.424-1.2.907-1.733 1.449-.283.318-.482.654-.6 1.006s-.158.705-.119 1.059c.038.353.146.705.325 1.057.18.35.43.676.75.976.637.585 1.315 1.005 2.034 1.262.72.256 1.474.464 2.266.623.393.094.781.143 1.164.148.382.004.758.007 1.126.008.105-.028.21-.024.311.013s.198.043.291.018c-.16.143-.28.272-.363.387-.083.114-.142.234-.18.358-.23.247-.464.484-.7.71-.236.229-.525.445-.864.65-.297.265-.606.487-.925.665-.32.179-.612.303-.876.374l-1.068.286c-.039.01-.108.018-.205.023l-.294.014c-.097.005-.172.004-.224-.004-.05-.007-.057-.016-.018-.027-.113-.055-.259-.123-.436-.204-.177-.081-.35-.134-.52-.16-.169-.026-.324-.01-.463.049-.14.059-.23.194-.274.405-.085.208-.109.41-.07.607.038.197.113.383.224.56.111.177.236.34.374.488.14.148.273.277.401.385.473.344.985.567 1.536.669.55.102 1.111.112 1.683.03.572-.082 1.138-.237 1.7-.466.56-.228 1.078-.507 1.556-.834.4-.25.835-.591 1.306-1.024.47-.433.88-.91 1.228-1.431.166-.248.304-.503.42-.761.13.22.265.437.408.646.535.784 1.246 1.435 2.134 1.953.103.015.227.042.372.082.145.039.282.063.412.07.13.01.241-.006.337-.046.095-.04.145-.132.15-.275.144-.51.281-1.014.41-1.512.128-.497.226-.991.293-1.48l.427.25c.293.249.648.457 1.068.623.42.166.826.249 1.223.25.395 0 .75-.101 1.062-.306.313-.205.522-.557.63-1.057.167-.43.283-.881.346-1.354.055-.404.084-.82.098-1.245.14-.025.276-.048.417-.081.193-.044.39-.075.59-.094.2-.017.415.007.644.074.101.272.18.654.233 1.146l.178 1.61c.063.582.146 1.169.25 1.762.101.593.251 1.127.45 1.602.197.474.456.86.777 1.16.32.3.732.439 1.235.418.236.037.408.016.514-.063.106-.078.17-.184.19-.318.02-.134.013-.282-.024-.443-.036-.161-.069-.302-.1-.422-.22-.554-.388-1.112-.503-1.673-.115-.561-.209-1.121-.28-1.68-.072-.557-.14-1.113-.204-1.667-.062-.553-.15-1.114-.259-1.684.514-.138 1.075-.26 1.683-.365.608-.106 1.215-.24 1.821-.403.115.112.244.224.386.335.144.11.297.209.461.294.164.084.332.143.503.175.171.033.342.026.514-.02.118-.074.191-.17.242-.274.41.343.855.622 1.34.834.664.293 1.373.43 2.125.415.752-.016 1.497-.23 2.234-.642.521-.325 1.017-.757 1.487-1.296.47-.54.828-1.117 1.073-1.732.246-.615.348-1.223.306-1.825-.04-.602-.31-1.122-.809-1.56.318-.184.674-.372 1.068-.563.394-.191.758-.374 1.093-.55.223-.116.353-.276.391-.48.038-.201.016-.413-.064-.634-.08-.221-.207-.44-.378-.658z" transform="translate(45.484 37.477)"/><path d="M46.403 15.826c-.603-.431-1.393-.724-2.369-.878-.976-.153-2.084-.19-3.322-.108-1.238.08-2.586.258-4.042.529-1.457.272-2.97.615-4.542 1.029-1.57.415-3.17.886-4.803 1.416-.337.109-.668.223-1.002.334.047.28.085.559.144.84.116.56.282 1.118.5 1.674.03.114.062.249.097.4 1.668-.51 3.333-.994 4.996-1.451 1.707-.472 3.371-.898 4.992-1.28 1.62-.381 3.181-.71 4.682-.987 1.501-.277 2.9-.483 4.193-.62.187-.023.335-.07.444-.138.108-.068.181-.147.218-.237.037-.088.04-.181.01-.28-.032-.096-.097-.177-.196-.243M22.471 20.824c-.172-.416-.3-.886-.402-1.391-.532.184-1.064.367-1.59.556-1.598.573-3.15 1.16-4.658 1.762-1.507.602-2.912 1.185-4.214 1.752-1.302.566-2.478 1.096-3.529 1.588-1.05.492-1.925.924-2.624 1.296-.61.322-1.21.644-1.799.967-.589.323-1.16.657-1.713 1.002-.133.076-.304.174-.512.296-.207.122-.41.245-.607.37s-.365.253-.504.382c-.14.13-.2.246-.184.346.008.183.105.285.29.308.185.023.402 0 .65-.065.25-.067.5-.151.754-.252.255-.101.46-.185.616-.254.633-.235 1.266-.474 1.897-.716.631-.241 1.262-.486 1.891-.734 1.238-.463 2.584-.96 4.04-1.488 1.455-.528 2.982-1.07 4.58-1.622 1.597-.554 3.244-1.11 4.942-1.671 1.19-.392 2.393-.766 3.595-1.143-.054-.04-.109-.076-.158-.124-.312-.301-.566-.69-.76-1.165" transform="translate(45.484 37.477)"/></g></g></g></svg>