<svg xmlns="http://www.w3.org/2000/svg" width="32" height="32"><g fill="none" fill-rule="evenodd" stroke="#FFF"><path stroke-width=".923" d="M26.446 26H5.554C4.696 26 4 25.337 4 24.519V7.48C4 6.663 4.696 6 5.554 6h6.21c.423 0 .827.164 1.12.453l2.237 2.214c.293.29.698.454 1.12.454h10.205c.858 0 1.554.663 1.554 1.48V24.52c0 .818-.696 1.481-1.554 1.481z"/><path fill="#FFF" stroke-width=".5" d="m14.219 13.839 5.047 2.955c.195.135.284.373.284.606 0 .233-.089.471-.284.606l-4.385 3.028c-.268.035-.476.003-.62-.096-.15-.104-.211-.28-.211-.477V14.34c0-.2.064-.375.169-.5z"/></g></svg>