<svg xmlns="http://www.w3.org/2000/svg" width="24" height="24"><g fill="none" fill-rule="evenodd" stroke="#FFF"><path fill="#FFF" d="M1.28571429 9 16.7142857 9 16.7142857 16.7142857C16.7142857 17.4243661 16.1386518 18 15.4285714 18L2.57142857 18C1.86134818 18 1.28571429 17.4243661 1.28571429 16.7142857L1.28571429 9ZM.469951168 4.5 17.5300488 4.5C17.7895957 4.5 18 4.7104043 18 4.96995117L18 6.6014774C18 6.86102427 17.7895957 7.07142857 17.5300488 7.07142857L.469951168 7.07142857C.210404305 7.071428572.53829928e-16 6.861024272.22044605e-16 6.6014774L0 4.96995117C-3.17853235e-17 4.7104043.210404305 4.5.469951168 4.5Z" transform="translate(3 3)"/><path d="M2.30139789,-9.07718345e-13 C3.28573864,-9.07718345e-13 4.09550192,0.6255 4.96247138,1.74760714 C5.57299937,2.53832143 6.15032147,3.52510714 6.75,4.5 L2.19882129,4.5 C2.15476596,4.49035714 2.11005309,4.48360714 2.06501145,4.47975 C0.886366957,4.39746429 -2.04281037e-14,3.30396429 -2.04281037e-14,2.25 C-2.04281037e-14,1.10121429 0.906093225,-9.07718345e-13 2.30139789,-9.07718345e-13 L2.30139789,-9.07718345e-13 Z" transform="translate(5.25 3)"/><path d="M8.84370558,-9.07718345e-13 C9.82804633,-9.07718345e-13 10.6378096,0.6255 11.5047791,1.74760714 C12.1153071,2.53832143 12.6926292,3.52510714 13.2923077,4.5 L8.74112899,4.5 C8.69707366,4.49035714 8.65236078,4.48360714 8.60731914,4.47975 C7.42867465,4.39746429 6.54230769,3.30396429 6.54230769,2.25 C6.54230769,1.10121429 7.44840092,-9.07718345e-13 8.84370558,-9.07718345e-13 L8.84370558,-9.07718345e-13 Z" transform="matrix(-1 0 0 1 25.085 3)"/></g></svg>