<svg xmlns="http://www.w3.org/2000/svg" width="28" height="28" fill="none"><path stroke="#fff" stroke-miterlimit="10" stroke-width=".963" d="M22.5551 2.73104H5.50439C5.16706 2.73104 4.89776 3.0119 4.9091 3.35582 5.00831 5.97817 5.75951 16.0921 11.4488 18.4566 11.667 18.5483 11.8059 18.769 11.8059 19.0068V22.2339H16.2479V19.0068C16.2479 18.7661 16.3868 18.5483 16.6051 18.4566 22.2943 16.0921 23.0455 5.97817 23.1448 3.35295 23.1589 3.0119 22.8925 2.72804 22.5551 2.72804V2.73104ZM19.9841 22.2339H8.07826C7.74949 22.2339 7.48297 22.5034 7.48297 22.8358V24.6671C7.48297 24.9995 7.74949 25.269 8.07826 25.269H19.9841C20.3128 25.269 20.5794 24.9995 20.5794 24.6671V22.8358C20.5794 22.5034 20.3128 22.2339 19.9841 22.2339Z"/><path stroke="#fff" stroke-miterlimit="10" stroke-width=".963" d="M8.19732 15.5992C5.78498 15.2438 3.50587 13.6933 2.12253 10.8446.526582 7.56591 1.45637 6.04982 2.84538 6.04982 3.69012 6.04982 4.43565 6.04982 4.89488 6.04982M20.1315 15.5419C22.4219 15.0977 24.5565 13.5615 25.8803 10.8417 27.4734 7.56304 26.5464 6.04695 25.1546 6.04695 24.3467 6.04695 23.6267 6.04695 23.1646 6.04695"/><path stroke="#fff" stroke-linecap="round" stroke-linejoin="round" stroke-width=".963" d="M19.7778 6.2963C19.7778 6.2963 19.6739 11.7623 16.8889 14"/></svg>