<svg xmlns="http://www.w3.org/2000/svg" width="36" height="36" fill="none"><path fill="#fff" d="M27.4549 12.8279L27.719 13.2524L27.4549 12.8279ZM28.8552 5.81101L28.4483 6.10163L28.8552 5.81101ZM24.1426 14.8888L23.8785 14.4643C23.687 14.5834 23.599 14.8159 23.6635 15.0319C23.7281 15.248 23.9292 15.3941 24.1546 15.3887L24.1426 14.8888ZM28.8552 17.1982L28.4483 17.4888L28.8552 17.1982ZM27.4549 24.215L27.719 24.6396L27.4549 24.215ZM15.4194 31.7038L15.6836 32.1283L15.4194 31.7038ZM7.94108 30.2114L8.34795 29.9208L7.94108 30.2114ZM9.34137 23.1945L9.60552 23.6191L9.34137 23.1945ZM12.6536 21.1336L12.9178 21.5581C13.1092 21.439 13.1972 21.2065 13.1327 20.9905C13.0682 20.7744 12.867 20.6283 12.6416 20.6337L12.6536 21.1336ZM7.94108 18.8242L8.34795 18.5336L7.94108 18.8242ZM9.34137 11.8074L9.07722 11.3828L9.34137 11.8074ZM21.3768 4.31862L21.641 4.74315L21.3768 4.31862ZM17.1669 13.5278L16.8893 13.9437L16.8898 13.944L17.1669 13.5278ZM22.3392 16.972L22.6164 16.5558L22.6163 16.5558L22.3392 16.972ZM22.3392 18.7975L22.6163 19.2137L22.6164 19.2137L22.3392 18.7975ZM17.1669 22.2417L16.8898 21.8255L16.8893 21.8259L17.1669 22.2417ZM27.719 13.2524C30.4159 11.5744 31.1082 8.10504 29.262 5.52039L28.4483 6.10163C29.9589 8.2165 29.3974 11.0303 27.1907 12.4033L27.719 13.2524ZM24.4068 15.3133L27.719 13.2524L27.1907 12.4033L23.8785 14.4643L24.4068 15.3133ZM29.262 16.9076C28.0621 15.2276 26.0903 14.342 24.1306 14.389L24.1546 15.3887C25.8079 15.349 27.455 16.0982 28.4483 17.4888L29.262 16.9076ZM27.719 24.6396C30.4159 22.9615 31.1082 19.4922 29.262 16.9076L28.4483 17.4888C29.9589 19.6037 29.3974 22.4175 27.1907 23.7905L27.719 24.6396ZM15.6836 32.1283L27.719 24.6396L27.1907 23.7905L15.1553 31.2792L15.6836 32.1283ZM7.53421 30.502C9.36594 33.0664 13.0078 33.7932 15.6836 32.1283L15.1553 31.2792C12.9275 32.6654 9.87302 32.0559 8.34795 29.9208L7.53421 30.502ZM9.07722 22.77C6.38038 24.448 5.68803 27.9174 7.53421 30.502L8.34795 29.9208C6.83732 27.8059 7.39885 24.9921 9.60552 23.6191L9.07722 22.77ZM12.3895 20.709L9.07722 22.77L9.60552 23.6191L12.9178 21.5581L12.3895 20.709ZM7.53421 19.1148C8.73416 20.7948 10.7059 21.6804 12.6656 21.6334L12.6416 20.6337C10.9884 20.6733 9.34124 19.9242 8.34795 18.5336L7.53421 19.1148ZM9.07722 11.3828C6.38038 13.0609 5.68803 16.5302 7.53421 19.1148L8.34795 18.5336C6.83732 16.4187 7.39885 13.6049 9.60552 12.2319L9.07722 11.3828ZM21.1127 3.89409L9.07722 11.3828L9.60552 12.2319L21.641 4.74315L21.1127 3.89409ZM29.262 5.52039C27.4303 2.95597 23.7884 2.22919 21.1127 3.89409L21.641 4.74315C23.8688 3.35697 26.9232 3.96652 28.4483 6.10163L29.262 5.52039ZM16.7116 12.8848C15.9121 12.8848 15.2963 13.5979 15.2963 14.4406H16.2963C16.2963 14.0532 16.5566 13.8848 16.7116 13.8848V12.8848ZM17.4445 13.112C17.2179 12.9607 16.9657 12.8848 16.7116 12.8848V13.8848C16.7623 13.8848 16.8222 13.8989 16.8893 13.9437L17.4445 13.112ZM22.6163 16.5558L17.444 13.1116L16.8898 13.944L22.0621 17.3882L22.6163 16.5558ZM22.6164 19.2137C23.0865 18.9005 23.2963 18.3727 23.2963 17.8848C23.2963 17.3968 23.0865 16.869 22.6164 16.5558L22.062 17.3881C22.2013 17.4809 22.2963 17.6629 22.2963 17.8848C22.2963 18.1066 22.2013 18.2886 22.062 18.3814L22.6164 19.2137ZM17.444 22.6579L22.6163 19.2137L22.0621 18.3814L16.8898 21.8255L17.444 22.6579ZM16.7116 22.8848C16.9657 22.8848 17.2179 22.8088 17.4445 22.6576L16.8893 21.8259C16.8222 21.8707 16.7623 21.8848 16.7116 21.8848V22.8848ZM15.2963 21.3289C15.2963 22.1717 15.9121 22.8848 16.7116 22.8848V21.8848C16.5566 21.8848 16.2963 21.7163 16.2963 21.3289H15.2963ZM15.2963 14.4406V21.3289H16.2963V14.4406H15.2963Z"/></svg>