<svg xmlns="http://www.w3.org/2000/svg" xmlns:xlink="http://www.w3.org/1999/xlink" width="28" height="28"><defs><path id="a" d="M17.5 4.5A6 6 0 0 0 28 8.468V28H0V0h19.532A5.986 5.986 0 0 0 17.5 4.5zM28 0v.532A6.037 6.037 0 0 0 27.469 0L28 0z"/></defs><g fill="none" fill-rule="evenodd"><mask id="b" fill="#fff"><use xlink:href="#a"/></mask><g mask="url(#b)"><path fill="#FF7878" d="M8.038 5.875 2 14.457l12 11.418 12-11.418-6.038-8.582z"/><path fill="#00E6D2" d="M8.038 5.875 2 14.457h8.596z"/><path fill="#3EFFEE" d="M17.404 14.457h-6.808L8.038 5.875h11.924l-1.486 4.987-1.072 3.595z"/><path fill="#2BB7B3" d="m2 14.457 12 11.418-3.404-11.418z"/><path fill="#00E6D2" d="M10.596 14.457 14 25.874l3.403-11.417zM18.475 10.862 26 14.457h-8.596l1.071-3.595zm1.487-4.987L26 14.457l-7.524-3.595 1.486-4.987z"/><path fill="#2BB7B3" d="M17.404 14.457 14 25.874v.001l12-11.418z"/></g><g transform="translate(19)"><rect width="9" height="9" fill="#FFF" rx="4.5"/><g fill="#00D2BE" fill-rule="nonzero"><path d="M4.5 1.5A.5.5 0 0 1 5 2v5a.5.5 0 0 1-1 0V2a.5.5 0 0 1 .5-.5z"/><path d="M7 4a.5.5 0 0 1 0 1H2a.5.5 0 0 1 0-1h5z"/></g></g></g></svg>