<svg xmlns="http://www.w3.org/2000/svg" width="28" height="28" fill="none"><path stroke="#fff" stroke-linecap="round" d="M19.25 11.8122C19.25 15.9199 15.9204 19.25 11.8122 19.25C7.70458 19.25 4.375 15.9199 4.375 11.8122C4.375 7.70458 7.70458 4.375 11.8122 4.375C15.9204 4.375 19.25 7.70458 19.25 11.8122Z" clip-rule="evenodd"/><path fill="#fff" d="M17.8536 17.1464L17.5 16.7929L16.7929 17.5L17.1464 17.8536L17.8536 17.1464ZM23.2714 23.9786C23.4667 24.1738 23.7833 24.1738 23.9786 23.9786C24.1738 23.7833 24.1738 23.4667 23.9786 23.2714L23.2714 23.9786ZM17.1464 17.8536L23.2714 23.9786L23.9786 23.2714L17.8536 17.1464L17.1464 17.8536Z"/></svg>