<svg xmlns="http://www.w3.org/2000/svg" width="28" height="28"><g fill="none" fill-rule="evenodd" transform="translate(2)"><path stroke="#FFF" stroke-linecap="round" d="M3.365 20.12l.693-2.188c.51-1.53.728-3.134.728-4.774v-2.991c0-4.083 3.319-7.402 7.402-7.402 4.084 0 7.44 3.319 7.44 7.402v2.99c0 1.64.254 3.244.727 4.775l.694 2.188M1.01 20.12H23.4M12.188 2.765V1.012M16.576 20.12c-.095 2.277-2.04 4.127-4.364 4.127-2.325 0-4.27-1.85-4.412-4.127" transform="translate(0 1.733)"/><circle cx="22.967" cy="3.033" r="3.033" fill="#CF0404"/></g></svg>