<svg xmlns="http://www.w3.org/2000/svg" width="39" height="14" fill="none"><path fill="#fff" fill-rule="evenodd" d="M31.415 3.78428L31.2803 3.79205C30.7993 5.38856 30.3184 6.98507 29.8377 8.58092C30.3094 8.7287 32.4952 8.71329 32.8682 8.56143C32.3845 6.9715 31.8997 5.37789 31.415 3.78428ZM5.16577 2.82398C5.16852 3.82224 5.1401 4.73449 5.18489 5.6777C6.20237 5.70167 7.14638 5.76331 8.08057 5.51648C8.71982 5.34775 9.09556 4.89466 9.09949 4.23898C9.10368 3.54525 8.78006 3.08161 8.12706 2.93383C7.17598 2.71874 6.2122 2.83109 5.16577 2.82398ZM38.933 13.9566C37.4096 13.9915 35.9838 13.9651 34.4935 13.9748C34.2595 13.2171 34.0303 12.4755 33.7914 11.7019H28.8922C28.6622 12.446 28.4325 13.1892 28.1982 13.9474H23.8835C24.5158 12.1513 25.192 10.4244 25.8352 8.68577C26.48 6.94214 27.1346 5.20206 27.8183 3.37163C25.8344 3.40259 23.9466 3.43196 22.0125 3.46212C21.9297 4.35303 21.9847 5.2263 21.975 6.09706C21.9655 6.96005 21.9729 7.82331 21.9729 8.68656V11.3232V13.9374H17.705C17.7042 13.0464 17.7029 12.1742 17.7025 11.3021C17.702 10.4389 17.7024 9.57577 17.7024 8.71251V6.07586V3.47002H13.3784C13.4141 4.49213 13.2756 5.45364 12.6396 6.27791C12.0201 7.0807 11.1818 7.52445 10.2055 7.7863C10.2599 7.86006 10.2791 7.91683 10.3127 7.92736C11.2999 8.23531 11.8746 9.01348 12.3464 9.84618C13.0566 11.0994 13.6892 12.3971 14.3521 13.6773C14.3855 13.7418 14.3923 13.82 14.4239 13.9376H9.6922C9.56831 13.7238 9.43014 13.4989 9.30519 13.2668C8.6738 12.094 8.04765 10.9186 7.41561 9.7462C7.28935 9.51202 7.15826 9.27862 7.00777 9.05997C6.59379 8.4587 6.0157 8.22714 5.20515 8.35109C5.19166 8.51771 5.16442 8.69776 5.16402 8.87794C5.16036 10.3689 5.1618 11.86 5.16167 13.3508V13.9384H0.933014V0.0341263C11.8821 0.00989093 22.7958 -0.0293599 33.7478 0.0354435C35.4716 4.66322 37.1859 9.26611 38.933 13.9566Z" clip-rule="evenodd" opacity=".5"/></svg>