<svg width="32" height="32" viewBox="0 0 32 32" fill="none" xmlns="http://www.w3.org/2000/svg">
<g clip-path="url(#clip0_60982_411)">
<path d="M16.0002 28C12.7413 28 12.3327 27.986 11.0524 27.928C9.77534 27.8699 8.90278 27.667 8.13958 27.3704C7.35027 27.064 6.68112 26.6536 6.01421 25.9862C5.34686 25.3193 4.93691 24.6497 4.63 23.8609C4.33345 23.0977 4.1305 22.2251 4.072 20.948C4.0135 19.6682 4 19.2596 4 16.0002C4 12.7409 4.01395 12.3327 4.072 11.0524C4.1305 9.77534 4.333 8.90278 4.63 8.13958C4.93646 7.35027 5.34686 6.68112 6.01421 6.01421C6.68157 5.34731 7.35072 4.9369 8.13958 4.63C8.90278 4.33345 9.77534 4.1305 11.0524 4.07245C12.3323 4.01395 12.7409 4.00045 16.0002 4.00045C19.2596 4.00045 19.6677 4.0144 20.948 4.07245C22.2251 4.1305 23.0977 4.33345 23.8609 4.63C24.6502 4.93645 25.3193 5.34686 25.9862 6.01421C26.6531 6.68157 27.0635 7.35072 27.3704 8.13958C27.667 8.90278 27.8699 9.77534 27.928 11.0524C27.9865 12.3323 28 12.7409 28 16.0002C28 19.2596 27.986 19.6677 27.928 20.948C27.8699 22.2251 27.667 23.0977 27.3704 23.8609C27.064 24.6502 26.6536 25.3193 25.9862 25.9862C25.3189 26.6531 24.6497 27.0635 23.8609 27.3704C23.0977 27.667 22.2251 27.8699 20.948 27.928C19.6682 27.9865 19.2596 28 16.0002 28V28ZM16.0002 25.8377C19.2042 25.8377 19.584 25.8256 20.8495 25.7675C22.0195 25.714 22.6549 25.5187 23.0779 25.3544C23.6381 25.1366 24.0377 24.8765 24.4576 24.4567C24.8774 24.0368 25.1375 23.6368 25.3553 23.077C25.5196 22.654 25.7153 22.0186 25.7684 20.8486C25.826 19.5831 25.8386 19.2038 25.8386 15.9993C25.8386 12.7949 25.8265 12.4155 25.7684 11.1501C25.7149 9.98009 25.5196 9.34468 25.3553 8.92168C25.1375 8.36143 24.8774 7.96182 24.4576 7.54197C24.0377 7.12212 23.6381 6.86202 23.0779 6.64422C22.6549 6.47997 22.0195 6.28421 20.8495 6.23111C19.5845 6.17351 19.2047 6.16091 16.0002 6.16091C12.7958 6.16091 12.4164 6.17306 11.151 6.23111C9.98099 6.28421 9.34558 6.47997 8.92258 6.64422C8.36233 6.86202 7.96272 7.12212 7.54287 7.54197C7.12302 7.96182 6.86292 8.36143 6.64512 8.92168C6.48087 9.34468 6.28511 9.98009 6.23201 11.1501C6.17441 12.4155 6.16181 12.7949 6.16181 15.9993C6.16181 19.2038 6.17396 19.5831 6.23201 20.8486C6.28556 22.0186 6.48087 22.654 6.64512 23.077C6.86292 23.6372 7.12302 24.0368 7.54287 24.4567C7.96272 24.8765 8.36278 25.1366 8.92258 25.3544C9.34558 25.5187 9.98099 25.7144 11.151 25.7675C12.4164 25.8251 12.7958 25.8377 16.0002 25.8377Z" fill="white"/>
<path d="M16.0002 11.9997C13.7912 11.9997 12.0002 13.7907 12.0002 15.9998C12.0002 18.2088 13.7912 19.9999 16.0002 19.9999C18.2093 19.9999 20.0003 18.2088 20.0003 15.9998C20.0003 13.7907 18.2093 11.9997 16.0002 11.9997ZM16.0002 22.1621C12.5969 22.1621 9.83789 19.4032 9.83789 15.9998C9.83789 12.5964 12.5969 9.83745 16.0002 9.83745C19.4036 9.83745 22.1626 12.5964 22.1626 15.9998C22.1626 19.4032 19.4036 22.1621 16.0002 22.1621ZM23.846 22.4056C23.846 21.6104 23.2012 20.9656 22.406 20.9656C21.6109 20.9656 20.966 21.6104 20.966 22.4056C20.966 23.2007 21.6109 23.8456 22.406 23.8456C23.2012 23.8456 23.846 23.2007 23.846 22.4056Z" fill="white"/>
</g>
<defs>
<clipPath id="clip0_60982_411">
<rect width="24" height="24" fill="white" transform="matrix(1 0 0 -1 4 28)"/>
</clipPath>
</defs>
</svg>
