<svg width="32" height="32" viewBox="0 0 32 32" fill="none" xmlns="http://www.w3.org/2000/svg">
<g clip-path="url(#clip0_60982_407)">
<path d="M16.0002 4C9.37258 4 4 9.37258 4 16.0002C4 22.6279 9.37258 28.0005 16.0002 28.0005C22.6279 28.0005 28.0005 22.6279 28.0005 16.0002C28.0005 9.37258 22.6274 4 16.0002 4ZM21.7229 11.8035C21.6883 12.2891 21.4106 13.9883 21.1334 15.8265L20.2663 21.2716C20.2663 21.2716 20.1969 22.0694 19.6074 22.208C19.0179 22.3466 18.0468 21.7225 17.8731 21.5839C17.7345 21.4799 15.2721 19.9193 14.3703 19.1561C14.1278 18.9482 13.8501 18.5319 14.405 18.0464C15.6537 16.902 17.145 15.48 18.0464 14.5782C18.4626 14.162 18.8789 13.1909 17.1446 14.3703L12.2544 17.6652C12.2544 17.6652 11.6995 18.0122 10.6591 17.6999C9.61873 17.3876 8.40463 16.9718 8.40463 16.9718C8.40463 16.9718 7.57212 16.4516 8.99413 15.8967L17.0753 12.5672C17.8731 12.2202 20.5781 11.1105 20.5781 11.1105C20.5781 11.1105 21.8269 10.6249 21.7225 11.8039L21.7229 11.8035Z" fill="white"/>
</g>
<defs>
<clipPath id="clip0_60982_407">
<rect width="24" height="24" fill="white" transform="translate(4 4)"/>
</clipPath>
</defs>
</svg>
