<svg width="32" height="32" viewBox="0 0 32 32" fill="none" xmlns="http://www.w3.org/2000/svg">
<g clip-path="url(#clip0_60982_881)">
<path d="M24.9552 24.7558L17.7514 14.2904L16.937 13.1067L11.7839 5.62041L11.3569 5H5.0249L6.56922 7.24418L13.4208 17.1993L14.2353 18.3816L19.7404 26.3803L20.1675 27.0002H26.4995L24.9552 24.756V24.7558ZM20.92 25.5677L15.2006 17.2579L14.3862 16.075L7.74941 6.43229H10.6042L15.9714 14.2304L16.7858 15.4133L23.7748 25.5675H20.92V25.5677Z" fill="white"/>
<path d="M14.3861 16.0748L15.2005 17.2577L14.235 18.3814L6.82683 27H5L13.4206 17.1991L14.3861 16.0748Z" fill="white"/>
<path d="M25.737 5L17.7514 14.2904L16.7859 15.4133L15.9714 14.2304L16.937 13.1067L22.3463 6.81054L23.9102 5H25.737Z" fill="white"/>
</g>
<defs>
<clipPath id="clip0_60982_881">
<rect width="21.4992" height="22" fill="white" transform="translate(5 5)"/>
</clipPath>
</defs>
</svg>
