<svg width="32" height="32" viewBox="0 0 32 32" fill="none" xmlns="http://www.w3.org/2000/svg">
<g clip-path="url(#clip0_60982_409)">
<path d="M13.3407 19.7988V12.2012L20.1362 16.0002L13.3407 19.7988ZM28.4566 9.81072C28.1575 8.70439 27.2765 7.83296 26.1578 7.5373C24.1303 7 15.9998 7 15.9998 7C15.9998 7 7.86931 7 5.84183 7.5373C4.72351 7.83296 3.84252 8.70439 3.54336 9.81072C3 11.8162 3 16.0002 3 16.0002C3 16.0002 3 20.1838 3.54336 22.1893C3.84252 23.2956 4.72317 24.167 5.84218 24.4627C7.86966 25 16.0002 25 16.0002 25C16.0002 25 24.1307 25 26.1582 24.4627C27.2768 24.1667 28.1578 23.2956 28.457 22.1893C29.0003 20.1838 29.0003 15.9998 29.0003 15.9998C29.0003 15.9998 29.0003 11.8158 28.457 9.81072" fill="white"/>
</g>
<defs>
<clipPath id="clip0_60982_409">
<rect width="26" height="18" fill="white" transform="translate(3 7)"/>
</clipPath>
</defs>
</svg>
